<?xml version="1.0" standalone="no"?>
<!DOCTYPE svg PUBLIC "-//W3C//DTD SVG 20010904//EN"
 "http://www.w3.org/TR/2001/REC-SVG-20010904/DTD/svg10.dtd">
<svg version="1.0" xmlns="http://www.w3.org/2000/svg"
 width="1024.000000pt" height="1024.000000pt" viewBox="0 0 1024.000000 1024.000000"
 preserveAspectRatio="xMidYMid meet">

<g transform="translate(0.000000,1024.000000) scale(0.100000,-0.100000)"
fill="#000000" stroke="none">
<path d="M1928 9375 c-441 -61 -788 -309 -970 -695 -34 -72 -85 -236 -76 -245
2 -3 16 39 31 92 29 103 94 240 160 338 51 75 204 228 277 276 173 114 333
181 520 216 89 17 274 18 3155 21 3380 3 3274 5 3510 -59 128 -35 275 -107
378 -186 91 -70 229 -213 222 -231 -2 -7 -1 -11 4 -7 13 8 96 -129 138 -227
44 -104 87 -273 105 -408 19 -155 19 -6070 0 -6240 -18 -154 -34 -225 -77
-350 -42 -122 -85 -203 -167 -317 -61 -85 -209 -229 -234 -227 -7 1 -11 -2 -9
-7 8 -11 -42 -42 -55 -34 -6 4 -9 1 -8 -6 4 -17 -134 -87 -249 -126 -162 -57
-292 -77 -538 -84 -249 -7 -5821 -4 -5965 3 -80 4 -183 15 -230 23 -315 56
-601 233 -768 478 -141 205 -215 446 -229 743 -6 124 -5 132 13 137 16 4 16 5
2 6 -17 1 -18 53 -18 844 -1 463 -1 943 0 1067 1 124 2 232 2 240 0 8 -1 841
-1 1850 -1 1103 3 1879 9 1945 5 61 12 135 14 165 5 49 4 51 -4 15 -34 -157
-35 -260 -35 -3310 l0 -3000 23 -143 c13 -79 36 -185 53 -235 141 -432 489
-733 937 -813 178 -31 554 -34 3447 -30 2940 3 2959 4 3130 41 375 83 672 309
838 640 72 143 119 341 137 567 14 177 13 5893 -1 6069 -18 235 -65 416 -152
584 -140 269 -404 487 -692 570 -224 64 49 59 -3400 61 -2560 2 -3148 0 -3227
-11z"/>
<path d="M3867 8445 c-27 -7 -59 -23 -70 -35 l-22 -23 31 22 c17 12 53 25 80
29 27 4 45 10 39 14 -5 3 -32 0 -58 -7z"/>
<path d="M4665 8441 c-70 -32 -95 -69 -100 -142 -11 -163 -13 -239 -6 -244 5
-2 10 66 13 151 l4 156 36 34 c87 79 220 55 248 -44 5 -21 10 -148 10 -292 0
-201 -3 -260 -14 -275 -13 -19 -24 -20 -155 -17 l-141 3 -2 137 -2 137 -3
-134 c-2 -74 1 -139 6 -144 5 -5 73 -10 152 -10 l143 -2 13 25 c16 31 18 516
3 571 -12 42 -52 82 -99 98 -45 15 -59 14 -106 -8z"/>
<path d="M5483 8451 c-43 -11 -79 -35 -100 -68 -15 -23 -19 -56 -21 -205 -2
-98 0 -178 5 -178 4 0 7 71 5 158 -3 182 6 225 55 258 94 63 223 24 251 -76 8
-27 10 -30 11 -11 1 32 -35 88 -69 106 -37 19 -97 26 -137 16z"/>
<path d="M6291 8449 c-18 -6 -31 -12 -29 -14 2 -3 22 0 43 6 75 21 149 -23
175 -104 9 -28 11 -115 8 -308 l-3 -269 -155 2 -155 3 -5 190 -6 190 -2 -192
c-2 -226 -25 -199 179 -207 93 -3 140 -1 148 7 14 14 15 537 1 587 -16 58 -95
122 -148 119 -9 0 -32 -5 -51 -10z"/>
<path d="M3973 8436 c52 -19 85 -52 97 -96 5 -20 10 -161 9 -313 l0 -277 -149
0 c-137 0 -150 2 -160 19 -13 26 -14 550 0 588 9 26 9 27 -5 9 -13 -17 -15
-66 -15 -306 0 -214 3 -291 13 -303 11 -16 30 -17 167 -15 l155 3 3 285 c2
242 0 291 -14 327 -18 48 -57 81 -106 89 -33 5 -33 5 5 -10z"/>
<path d="M6217 8406 c-26 -24 -45 -71 -33 -83 3 -4 6 3 6 15 0 12 14 37 31 57
36 40 34 46 -4 11z"/>
<path d="M6173 8230 c0 -47 2 -66 4 -42 2 23 2 61 0 85 -2 23 -4 4 -4 -43z"/>
<path d="M5692 8145 c-2 -88 -4 -178 -6 -200 -1 -22 -3 -75 -4 -117 l-2 -78
-150 0 -150 0 0 121 c0 66 -4 118 -8 115 -8 -5 -5 -207 3 -233 6 -19 298 -18
314 1 8 9 11 92 8 282 -2 199 -3 227 -5 109z"/>
<path d="M3185 7570 c-78 -8 -143 -51 -271 -180 -65 -65 -123 -116 -129 -113
-5 4 -7 3 -3 -2 4 -4 -7 -24 -24 -43 -17 -20 -43 -61 -57 -92 -23 -49 -26 -66
-25 -165 1 -60 4 -821 8 -1690 4 -869 9 -1584 11 -1590 7 -19 3 2474 -4 2900
-4 248 -4 451 2 479 15 82 43 122 190 274 140 142 193 184 258 202 42 12 3900
14 3949 2 61 -15 117 -59 271 -210 108 -107 154 -160 171 -197 l23 -50 2
-1315 c1 -723 3 -1612 4 -1976 l2 -661 -23 -49 c-35 -72 -293 -332 -373 -375
l-62 -34 -445 -8 c-245 -4 -1127 -6 -1960 -4 -1633 5 -1577 3 -1663 56 -64 39
-296 296 -324 358 -26 56 -26 58 -24 292 1 130 4 251 7 269 4 20 2 32 -5 32
-8 0 -12 -63 -13 -207 -5 -403 -13 -380 193 -596 187 -196 193 -199 429 -212
124 -6 3395 -7 3612 0 200 6 249 20 332 95 29 27 57 46 61 42 5 -4 5 -2 2 4
-4 6 38 55 94 109 167 163 187 209 178 405 -3 69 -6 938 -7 1931 -2 1938 0
1856 -51 1932 -23 35 -266 282 -304 309 -15 11 -25 23 -22 28 3 4 -1 7 -8 7
-6 -1 -34 9 -61 22 l-49 23 -1921 2 c-1056 0 -1943 -1 -1971 -4z"/>
<path d="M7660 7499 c0 -5 5 -7 10 -4 6 3 10 8 10 11 0 2 -4 4 -10 4 -5 0 -10
-5 -10 -11z"/>
<path d="M1728 7233 c6 -2 18 -2 25 0 6 3 1 5 -13 5 -14 0 -19 -2 -12 -5z"/>
<path d="M4669 7210 l-1436 -5 -49 -30 c-55 -35 -119 -113 -134 -165 -6 -22
-10 -706 -10 -1898 l0 -1862 20 -49 c12 -26 42 -68 68 -92 l47 -44 -42 45
c-23 25 -51 69 -62 98 -21 53 -21 57 -21 1905 0 1204 3 1864 10 1887 5 19 26
58 46 87 28 41 50 59 98 82 l61 30 1845 4 c1545 4 1853 2 1892 -9 60 -18 139
-90 172 -156 l26 -52 0 -320 c0 -175 2 -317 5 -314 3 3 5 146 5 317 0 292 -1
316 -20 358 -30 68 -81 125 -141 158 l-54 30 -445 0 c-245 0 -1091 -2 -1881
-5z"/>
<path d="M5020 6674 c-182 -17 -325 -53 -504 -128 -233 -98 -374 -193 -534
-361 -163 -171 -291 -386 -367 -620 -62 -188 -70 -246 -69 -490 0 -237 11
-313 69 -490 44 -135 170 -380 222 -433 7 -8 10 -19 6 -25 -3 -7 -3 -9 1 -5 5
4 30 -19 56 -50 163 -194 463 -400 691 -476 341 -113 672 -113 1014 0 270 88
453 202 661 409 185 185 288 344 362 562 25 72 72 296 72 341 0 17 6 33 13 35
6 3 7 6 1 6 -6 1 -9 16 -8 34 5 56 -13 -37 -31 -163 -51 -345 -210 -634 -484
-877 -211 -186 -453 -310 -736 -379 -213 -51 -503 -51 -715 1 -238 58 -469
180 -677 359 -376 321 -564 833 -502 1361 33 281 170 592 366 827 227 273 549
453 953 534 92 18 316 24 455 12 l80 -7 -80 14 c-73 12 -228 17 -315 9z"/>
<path d="M5345 6615 c-335 -74 -634 -317 -798 -648 -21 -43 -37 -80 -35 -83 3
-2 26 38 51 90 51 101 140 228 221 314 70 74 210 175 316 227 84 42 240 95
281 95 10 0 21 5 24 10 3 6 5 10 3 9 -2 0 -30 -7 -63 -14z"/>
<path d="M6192 6577 c-12 -12 -51 -92 -87 -177 -36 -85 -71 -165 -77 -177 -18
-37 -62 -72 -139 -113 -41 -22 -70 -40 -65 -40 25 -1 152 79 182 114 21 25 61
102 101 196 112 263 129 269 185 65 31 -114 79 -232 109 -268 32 -38 47 -47
236 -127 155 -65 183 -79 183 -95 0 -14 -48 -38 -165 -81 -119 -44 -204 -85
-226 -110 -20 -23 -91 -164 -149 -297 -44 -101 -73 -147 -93 -147 -7 0 -20 18
-30 39 -20 45 -91 217 -115 281 -10 25 -39 67 -67 95 -44 44 -67 57 -188 104
-145 55 -217 102 -197 126 11 13 90 49 173 80 27 9 47 19 44 21 -5 5 -135 -43
-184 -69 -24 -12 -45 -28 -48 -35 -6 -15 59 -77 95 -91 14 -5 57 -21 95 -36
161 -60 237 -107 220 -136 -5 -8 -4 -10 4 -5 13 8 52 -72 101 -205 32 -85 75
-175 88 -183 19 -11 72 64 118 169 27 60 69 150 94 200 l45 90 75 37 c41 20
116 51 165 68 147 52 182 82 133 114 -26 17 -260 119 -298 131 -48 14 -102 59
-124 104 -25 50 -77 198 -96 273 -15 56 -45 108 -63 108 -7 0 -23 -10 -35 -23z"/>
<path d="M1913 6470 c-72 -17 -114 -71 -112 -142 1 -27 3 -24 10 16 10 60 49
103 105 116 21 5 166 10 322 10 l282 0 0 -144 c0 -106 -3 -148 -13 -158 -11
-10 -71 -12 -303 -8 l-291 5 -37 29 c-21 16 -44 43 -52 60 -7 17 -13 25 -14
18 0 -28 32 -72 71 -95 37 -22 53 -25 158 -26 64 0 189 -4 278 -7 142 -6 165
-5 188 10 l26 17 -3 152 -3 152 -290 2 c-159 0 -305 -2 -322 -7z"/>
<path d="M7732 6467 c-9 -11 -15 -115 -13 -239 1 -24 8 -45 21 -58 19 -19 33
-20 296 -20 308 0 322 2 372 68 23 30 27 45 27 103 0 64 -2 70 -35 104 -19 19
-50 40 -70 45 -55 16 -585 13 -598 -3z m636 -25 c92 -66 80 -212 -21 -261 -41
-20 -59 -21 -314 -21 -234 0 -274 2 -287 16 -13 12 -16 41 -16 148 0 73 3 136
7 140 4 4 140 6 303 4 291 -3 295 -3 328 -26z"/>
<path d="M7204 6225 c0 -66 1 -92 3 -57 2 34 2 88 0 120 -2 31 -3 3 -3 -63z"/>
<path d="M7201 5936 c0 -93 1 -167 4 -164 8 7 11 259 4 298 -3 19 -7 -41 -8
-134z"/>
<path d="M9370 5940 c-9 -6 -10 -10 -3 -10 6 0 15 5 18 10 8 12 4 12 -15 0z"/>
<path d="M9060 5880 c0 -5 5 -10 11 -10 5 0 7 5 4 10 -3 6 -8 10 -11 10 -2 0
-4 -4 -4 -10z"/>
<path d="M4477 5793 c-40 -125 -50 -198 -50 -358 1 -233 32 -367 135 -568 64
-124 114 -192 222 -295 189 -182 444 -297 676 -307 l95 -4 -90 8 c-242 23
-491 134 -666 299 -101 95 -167 183 -227 302 -103 204 -132 325 -133 560 0
164 10 243 46 355 14 43 24 80 21 82 -2 3 -16 -31 -29 -74z"/>
<path d="M9170 5821 c0 -5 5 -13 10 -16 6 -3 10 -2 10 4 0 5 -4 13 -10 16 -5
3 -10 2 -10 -4z"/>
<path d="M7200 5355 c0 -225 3 -406 6 -403 7 8 8 797 0 805 -3 4 -6 -177 -6
-402z"/>
<path d="M1890 5653 c-19 -9 -39 -15 -45 -14 -5 2 -7 -1 -2 -5 4 -4 -1 -16
-10 -27 -13 -14 -19 -40 -21 -97 -5 -90 11 -130 61 -160 30 -19 52 -20 323
-20 265 0 292 2 305 18 13 16 15 30 9 57 -2 6 -5 -6 -9 -25 l-6 -35 -290 -3
c-324 -3 -339 -1 -369 63 -23 49 -21 152 4 193 36 59 57 63 378 60 l287 -3 6
-115 5 -115 2 116 c2 99 0 118 -14 123 -9 3 -142 6 -297 6 -238 -1 -287 -3
-317 -17z"/>
<path d="M7744 5655 c-9 -7 -12 -49 -11 -165 l2 -155 295 -2 c291 -3 296 -2
335 20 22 12 46 36 54 52 20 41 18 136 -3 183 -30 67 -28 66 -360 72 -192 3
-304 1 -312 -5z m616 -20 c42 -22 63 -68 63 -141 0 -73 -22 -117 -67 -136 -23
-10 -106 -13 -321 -13 l-290 0 2 150 c2 83 3 151 3 153 0 1 131 2 290 2 241 0
296 -3 320 -15z"/>
<path d="M7585 5560 c-3 -5 -1 -10 4 -10 6 0 11 5 11 10 0 6 -2 10 -4 10 -3 0
-8 -4 -11 -10z"/>
<path d="M9091 5304 c0 -11 3 -14 6 -6 3 7 2 16 -1 19 -3 4 -6 -2 -5 -13z"/>
<path d="M1018 5123 c7 -3 16 -2 19 1 4 3 -2 6 -13 5 -11 0 -14 -3 -6 -6z"/>
<path d="M6641 4943 c-95 -193 -278 -401 -439 -496 -169 -102 -343 -159 -527
-175 -90 -8 -94 -9 -35 -11 141 -2 304 41 468 125 169 86 306 201 417 350 69
92 170 274 153 274 -2 0 -19 -30 -37 -67z"/>
<path d="M2175 4881 c-216 -6 -245 -9 -287 -28 -49 -22 -79 -63 -77 -105 1
-17 3 -14 11 12 12 44 34 69 78 89 29 13 86 16 321 19 l286 4 6 -24 c4 -13 7
-80 7 -150 l0 -126 -82 -4 c-46 -2 -183 -5 -304 -6 -215 -2 -222 -1 -255 21
-19 12 -39 34 -46 47 -7 15 -13 19 -13 10 0 -25 27 -56 64 -74 30 -14 75 -16
328 -16 191 1 297 5 305 12 19 16 18 291 -1 307 -20 17 -72 19 -341 12z"/>
<path d="M7725 4866 c-15 -24 -22 -291 -7 -300 5 -3 141 -8 303 -11 325 -6
338 -4 383 58 31 43 30 166 -2 199 -12 14 -19 28 -15 32 5 4 3 7 -2 5 -6 -1
-21 2 -35 8 -29 12 -175 22 -157 11 7 -4 39 -8 72 -8 101 0 155 -50 155 -145
0 -59 -21 -109 -56 -132 -22 -14 -47 -18 -109 -17 -44 0 -181 1 -305 2 l-225
2 3 147 c2 82 5 150 7 152 2 2 102 2 222 2 119 -1 215 0 213 2 -3 3 -101 7
-218 10 -209 5 -213 4 -227 -17z"/>
<path d="M7203 4060 l2 -815 -23 -43 c-46 -86 -130 -151 -216 -166 -21 -4
-187 -9 -369 -12 -181 -2 -332 -6 -335 -9 -8 -8 434 -5 593 4 122 7 146 11
190 33 60 31 115 87 147 148 l23 45 0 798 c0 439 -3 805 -7 815 -4 9 -7 -350
-5 -798z"/>
<path d="M1807 4713 c-2 -5 -1 -19 4 -33 7 -23 7 -23 8 8 1 31 -3 40 -12 25z"/>
<path d="M9088 4683 c7 -3 16 -2 19 1 4 3 -2 6 -13 5 -11 0 -14 -3 -6 -6z"/>
<path d="M871 4414 c0 -11 3 -14 6 -6 3 7 2 16 -1 19 -3 4 -6 -2 -5 -13z"/>
<path d="M9225 4330 c-3 -5 -1 -10 4 -10 6 0 11 5 11 10 0 6 -2 10 -4 10 -3 0
-8 -4 -11 -10z"/>
<path d="M1891 4060 c-46 -29 -67 -57 -82 -108 -20 -73 15 -153 83 -185 27
-13 90 -17 326 -21 178 -3 292 -1 292 5 0 5 -116 9 -287 9 -337 0 -354 4 -392
82 -26 54 -26 81 -2 134 20 44 60 78 105 90 15 3 151 3 302 -1 l274 -7 0 -137
c0 -75 5 -143 10 -151 6 -10 9 34 9 130 0 80 -3 151 -7 157 -6 10 -84 14 -303
19 -289 6 -295 5 -328 -16z"/>
<path d="M7732 4059 c-5 -12 -8 -85 -8 -163 l1 -141 294 -3 294 -2 44 26 c88
51 110 180 43 249 -17 17 -28 33 -26 36 9 9 -32 11 -332 15 l-302 5 -8 -22z
m640 -21 c83 -63 75 -185 -16 -252 -26 -20 -40 -21 -324 -21 l-297 0 -3 50
c-2 28 -1 96 3 153 l7 103 297 -3 298 -3 35 -27z"/>
<path d="M7580 3731 c0 -6 4 -13 10 -16 6 -3 7 1 4 9 -7 18 -14 21 -14 7z"/>
<path d="M8665 3580 c3 -5 8 -10 11 -10 2 0 4 5 4 10 0 6 -5 10 -11 10 -5 0
-7 -4 -4 -10z"/>
<path d="M9208 3573 c7 -3 16 -2 19 1 4 3 -2 6 -13 5 -11 0 -14 -3 -6 -6z"/>
<path d="M9140 3560 c0 -5 4 -10 9 -10 6 0 13 5 16 10 3 6 -1 10 -9 10 -9 0
-16 -4 -16 -10z"/>
<path d="M9036 3533 c-6 -14 -5 -15 5 -6 7 7 10 15 7 18 -3 3 -9 -2 -12 -12z"/>
<path d="M9218 3103 c7 -3 16 -2 19 1 4 3 -2 6 -13 5 -11 0 -14 -3 -6 -6z"/>
<path d="M9055 3070 c-3 -6 1 -7 9 -4 18 7 21 14 7 14 -6 0 -13 -4 -16 -10z"/>
<path d="M3185 3060 c6 -10 74 -34 80 -28 2 2 -16 11 -41 21 -25 9 -42 12 -39
7z"/>
<path d="M9275 3039 c-4 -6 -5 -12 -2 -15 2 -3 7 2 10 11 7 17 1 20 -8 4z"/>
<path d="M3285 3032 c11 -11 1945 -22 1945 -11 0 3 -432 7 -961 8 -528 1 -968
5 -977 8 -12 4 -14 3 -7 -5z"/>
<path d="M5240 3023 c0 -5 227 -8 505 -8 278 0 505 3 505 8 0 4 -227 7 -505 7
-278 0 -505 -3 -505 -7z"/>
<path d="M8498 3003 c7 -3 16 -2 19 1 4 3 -2 6 -13 5 -11 0 -14 -3 -6 -6z"/>
<path d="M7868 2953 c7 -3 16 -2 19 1 4 3 -2 6 -13 5 -11 0 -14 -3 -6 -6z"/>
<path d="M9218 2823 c7 -3 16 -2 19 1 4 3 -2 6 -13 5 -11 0 -14 -3 -6 -6z"/>
<path d="M1720 2786 c0 -2 8 -10 18 -17 15 -13 16 -12 3 4 -13 16 -21 21 -21
13z"/>
<path d="M8736 2643 c-6 -14 -5 -15 5 -6 7 7 10 15 7 18 -3 3 -9 -2 -12 -12z"/>
<path d="M5948 2633 c7 -3 16 -2 19 1 4 3 -2 6 -13 5 -11 0 -14 -3 -6 -6z"/>
<path d="M6182 2484 c-12 -9 -15 -60 -16 -312 l-1 -302 40 -40 c34 -33 50 -41
91 -46 89 -11 159 31 178 106 5 19 2 16 -13 -10 -37 -68 -65 -85 -136 -84 -72
1 -105 17 -135 67 -18 28 -20 51 -20 188 0 86 3 217 7 292 l6 137 161 2 161 3
-154 5 c-102 3 -159 1 -169 -6z"/>
<path d="M3753 2463 c-4 -16 -7 -143 -7 -283 -1 -296 4 -323 67 -367 70 -49
189 -29 241 41 24 31 34 160 35 459 l1 177 -165 0 -165 0 -7 -27z m326 -125
c0 -79 -4 -214 -7 -300 l-7 -158 -37 -37 c-35 -35 -42 -38 -105 -41 -79 -4
-120 16 -150 70 -16 30 -18 59 -15 312 2 154 5 283 8 288 3 4 75 8 160 8 l154
0 -1 -142z"/>
<path d="M4571 2481 c-11 -7 -15 -65 -19 -288 -5 -269 -4 -280 16 -320 37 -71
95 -99 177 -84 49 9 96 45 121 93 15 30 18 293 5 483 -5 67 -7 7 -7 -185 1
-283 1 -285 -22 -318 -31 -43 -72 -63 -133 -64 -54 -2 -86 16 -123 66 -19 25
-21 44 -24 194 -1 92 1 223 5 292 l8 125 147 0 c80 0 141 3 135 7 -17 11 -269
9 -286 -1z"/>
<path d="M5379 2474 c-11 -14 -15 -70 -17 -282 -3 -228 -1 -272 13 -309 48
-124 216 -136 292 -22 l28 43 -3 280 c-1 154 -6 284 -10 288 -5 5 -71 11 -148
14 -125 5 -142 4 -155 -12z m298 -8 c0 0 3 -127 5 -282 l3 -280 -25 -36 c-31
-46 -64 -65 -126 -73 -41 -6 -54 -3 -83 17 -19 12 -44 36 -55 51 -20 27 -21
40 -21 313 0 220 3 287 13 293 10 6 281 3 289 -3z"/>
<path d="M8866 2472 c-3 -5 1 -9 9 -9 8 0 12 4 9 9 -3 4 -7 8 -9 8 -2 0 -6 -4
-9 -8z"/>
<path d="M9225 2470 c-8 -13 5 -13 25 0 13 8 13 10 -2 10 -9 0 -20 -4 -23 -10z"/>
<path d="M6497 2463 c-3 -5 -7 -129 -10 -278 -3 -148 -2 -250 2 -225 5 25 9
133 10 240 1 107 4 212 6 233 3 36 1 45 -8 30z"/>
<path d="M8350 2406 c0 -2 7 -6 15 -10 8 -3 15 -1 15 4 0 6 -7 10 -15 10 -8 0
-15 -2 -15 -4z"/>
<path d="M9126 2361 c-3 -5 0 -11 7 -14 8 -3 14 1 14 9 0 16 -13 19 -21 5z"/>
<path d="M8900 2289 c0 -5 5 -7 10 -4 6 3 10 8 10 11 0 2 -4 4 -10 4 -5 0 -10
-5 -10 -11z"/>
<path d="M9018 2293 c7 -3 16 -2 19 1 4 3 -2 6 -13 5 -11 0 -14 -3 -6 -6z"/>
<path d="M7078 2243 c7 -3 16 -2 19 1 4 3 -2 6 -13 5 -11 0 -14 -3 -6 -6z"/>
<path d="M9087 2046 c-4 -10 -1 -13 9 -9 15 6 19 23 5 23 -5 0 -11 -7 -14 -14z"/>
<path d="M3445 1930 c-3 -5 -1 -10 4 -10 6 0 11 5 11 10 0 6 -2 10 -4 10 -3 0
-8 -4 -11 -10z"/>
<path d="M8890 1839 c0 -5 5 -7 10 -4 6 3 10 8 10 11 0 2 -4 4 -10 4 -5 0 -10
-5 -10 -11z"/>
<path d="M8670 1760 c-9 -6 -10 -10 -3 -10 6 0 15 5 18 10 8 12 4 12 -15 0z"/>
<path d="M8000 1700 c0 -5 5 -10 11 -10 5 0 7 5 4 10 -3 6 -8 10 -11 10 -2 0
-4 -4 -4 -10z"/>
<path d="M3337 1569 c7 -7 15 -10 18 -7 3 3 -2 9 -12 12 -14 6 -15 5 -6 -5z"/>
<path d="M5208 1563 c7 -3 16 -2 19 1 4 3 -2 6 -13 5 -11 0 -14 -3 -6 -6z"/>
<path d="M9005 1550 c3 -5 10 -10 16 -10 5 0 9 5 9 10 0 6 -7 10 -16 10 -8 0
-12 -4 -9 -10z"/>
<path d="M9196 1503 c-6 -14 -5 -15 5 -6 7 7 10 15 7 18 -3 3 -9 -2 -12 -12z"/>
<path d="M1708 1433 c7 -3 16 -2 19 1 4 3 -2 6 -13 5 -11 0 -14 -3 -6 -6z"/>
<path d="M8588 1393 c7 -3 16 -2 19 1 4 3 -2 6 -13 5 -11 0 -14 -3 -6 -6z"/>
<path d="M8935 1390 c3 -5 8 -10 11 -10 2 0 4 5 4 10 0 6 -5 10 -11 10 -5 0
-7 -4 -4 -10z"/>
<path d="M8645 1310 c4 -6 11 -8 16 -5 14 9 11 15 -7 15 -8 0 -12 -5 -9 -10z"/>
<path d="M6585 1290 c-3 -5 -2 -10 4 -10 5 0 13 5 16 10 3 6 2 10 -4 10 -5 0
-13 -4 -16 -10z"/>
<path d="M8425 950 c3 -5 8 -10 11 -10 2 0 4 5 4 10 0 6 -5 10 -11 10 -5 0 -7
-4 -4 -10z"/>
</g>
</svg>
